# xmcd CD database file
#
# Track frame offsets:
#	182
#	22022
#	47862
#	69475
#	92962
#	114720
#
# Disc length: 1922 seconds
#
# Revision: 4
# Processed by: cddbd v1.5PL3 Copyright (c) Steve Scherf et al.
# Submitted via: CDex 1.50
#
DISCID=52078006
DTITLE=Lucky Peterson - Lifetime - CD2
DYEAR=1996
DGENRE=Blues
TTITLE0=Time (mix 1)
TTITLE1=Time (mix 2)
TTITLE2=Lifetime (mix 1)
TTITLE3=Lifetime (instrumental)
TTITLE4=Time will
TTITLE5=Lifetime (mix 2)
EXTD=YEAR: 1996
EXTT0=
EXTT1=
EXTT2=
EXTT3=
EXTT4=
EXTT5=
PLAYORDER=
